<svg xmlns="http://www.w3.org/2000/svg" xmlns:xlink="http://www.w3.org/1999/xlink" width="81" height="119" viewBox="0 0 81 119"><defs><path id="81k0a" d="M331.4 200.4h-33.6L256.5 138l28.8-1.4z"/><path id="81k0c" d="M325.5 147c1-1.2 2-2.5 2.9-3.9 4.1-6.4 6.2-13.6 6.2-21.7 0-5.5-1.1-10.6-3.2-15.4-2.1-4.8-5-8.9-8.6-12.5-3.6-3.5-7.8-6.3-12.6-8.4-4.7-2.1-9.8-3.1-15.1-3.1H254l18.4 25.4h17.9c6.5 0 11.2 1.4 14.3 4.1 3 2.7 4.6 6.1 4.6 10 0 3.9-1.5 7.3-4.6 10.2-2.6 2.4-6.5 3.8-11.5 4.2l15.3 21.1c9.1-3 14.3-7 17.1-10z"/><linearGradient id="81k0b" x1="293.95" x2="293.95" y1="136.6" y2="200.4" gradientUnits="userSpaceOnUse"><stop offset="0" stop-color="#2bc9ff"/><stop offset="1" stop-color="#57eaea"/></linearGradient><linearGradient id="81k0d" x1="294.3" x2="294.3" y1="82" y2="157" gradientUnits="userSpaceOnUse"><stop offset="0" stop-color="#2bc9ff"/><stop offset="1" stop-color="#57eaea"/></linearGradient></defs><g><g transform="translate(-254 -82)"><use fill="url(#81k0b)" xlink:href="#81k0a"/></g><g transform="translate(-254 -82)"/><g transform="translate(-254 -82)"/><g transform="translate(-254 -82)"/><g transform="translate(-254 -82)"/><g transform="translate(-254 -82)"><use fill="url(#81k0d)" xlink:href="#81k0c"/></g></g></svg>