<svg width="196" height="185" viewBox="0 0 196 185" fill="none" xmlns="http://www.w3.org/2000/svg">
    <path d="M66.4838 7.5344L64.2449 10.4794L14.6759 74.5862L12.4369 77.5312L13.7257 81.0812L42.5731 158.636L43.8619 162.186L129.724 176.909L131.963 173.964L181.534 109.856L183.773 106.911L182.484 103.361L153.637 25.8069L152.348 22.2569L66.4838 7.5344ZM79.8731 23.1451L118.301 29.7345L88.1316 35.3792L79.8731 23.1451ZM137.114 32.9606L103.84 58.4616L92.2898 41.2943L137.114 32.9606ZM71.5512 22.3416L81.5026 36.7332L68.891 39.1563L71.2962 22.7152L71.5512 22.3416ZM143.708 35.9633L155.87 68.2157L126.515 91.6846L107.67 63.9032L143.708 35.9633ZM63.3601 33.0046L62.2911 40.3115L56.9267 41.2635L63.3601 33.0046ZM85.4624 42.6191L98.8488 62.3905L71.9281 82.949L64.1989 71.2217L67.8808 46.0536L85.4624 42.6191ZM61.2817 47.2112L58.9363 63.2441L50.2393 49.8974L50.7499 49.1551L61.2817 47.2112ZM46.0453 55.2091L57.5408 72.783L54.0076 96.9346L37.9213 109.364L26.9422 80.0185L46.0453 55.2091ZM157.665 75.1791L142.894 115.712L130.144 97.0917L157.665 75.1791ZM102.479 67.7966L121.519 95.6104L94.4503 117.184L75.5287 88.5587L102.479 67.7966ZM161.466 83.531L169.26 104.429L151.18 127.75L147.55 122.343L161.466 83.531ZM62.8047 80.7598L66.9334 86.8773L61.2606 91.3153L62.8047 80.7598ZM125.149 101.02L140.393 123.195L136.723 133.176L100.848 127.025L98.05 122.8L125.149 101.02ZM70.5343 92.4847L89.4261 121.314L85.3627 124.362L57.1342 119.522L59.9258 100.439L70.5343 92.4847ZM52.6715 106.068L50.8612 118.442L40.6679 116.695L40.1987 115.784L52.6715 106.068ZM144.853 129.78L146.985 133.058L145.738 134.716L143.19 134.279L144.853 129.78ZM43.2414 123.798L49.9104 124.942L48.1586 136.917L43.2414 123.798ZM56.1794 126.017L78.531 129.85L53.0428 150.237L52.7691 149.36L56.1794 126.017ZM87.1526 131.328L97.1504 133.043L115.543 161.161L61.4415 151.884L87.1526 131.328ZM105.775 134.522L134.395 139.429L127.624 158.241L124.166 162.641L105.775 134.522ZM140.865 140.539L141.257 140.606L140.521 141.519L140.865 140.539Z" fill="#F5F5F5"/>
</svg>
