<svg width="122" height="120" viewBox="0 0 122 120" fill="none" xmlns="http://www.w3.org/2000/svg">
    <path d="M21.5027 0.0446777L15.457 6.38154L24.457 15.8149L30.5027 9.47804L21.5027 0.0446777ZM100.499 0.0446777L91.4991 9.47804L97.5449 15.8149L106.545 6.38154L100.499 0.0446777ZM61.0004 2.86054C59.5637 2.87224 58.1286 2.96632 56.7017 3.14236C56.6511 3.15061 56.6174 3.1341 56.5679 3.14236C39.1349 5.23774 25.2557 20.0057 22.846 38.2062C21.9557 44.9795 22.7214 51.879 25.0713 58.2573C27.4212 64.6356 31.2783 70.2837 36.2807 74.672C40.2048 78.1898 42.8603 83.0107 43.8047 88.3315V115.369H53.6125C54.3546 116.737 55.4292 117.875 56.7272 118.666C58.0251 119.458 59.4999 119.875 61.0015 119.875C62.5031 119.875 63.9779 119.458 65.2758 118.666C66.5737 117.875 67.6484 116.737 68.3905 115.369H78.1982V97.3487H78.601V91.9988C78.601 85.3895 81.8759 78.7354 87.1994 73.5518C94.3195 66.0888 99.6936 55.4657 99.6936 43.2766C99.6748 32.5393 95.5879 22.2495 88.3318 14.6703C81.0756 7.09101 71.2444 2.84301 61.0004 2.86054ZM61.0004 11.8729C64.9502 11.8384 68.8673 12.6261 72.5246 14.1902C76.1819 15.7544 79.5065 18.0639 82.3058 20.9849C85.1051 23.906 87.3233 27.3804 88.8319 31.2067C90.3405 35.0331 91.1095 39.1353 91.0941 43.2754C91.0124 47.7327 90.0922 52.1292 88.3862 56.213C86.6802 60.2968 84.222 63.9874 81.1525 67.0734L81.2864 67.2138C75.5518 72.7597 71.8453 80.2307 70.807 88.3363H52.0004C51.2086 80.4051 47.6145 73.0715 41.9249 67.7774C37.9831 64.3827 34.9378 59.9853 33.0797 55.0053C31.2216 50.0254 30.6128 44.6292 31.3116 39.3323C32.3935 31.8286 35.962 24.964 41.3909 19.9429C46.8199 14.9219 53.7624 12.0652 61.0004 11.8741V11.8729ZM0.812866 43.2754V52.2878H13.7099V43.2754H0.812866ZM108.291 43.2754V52.2878H121.188V43.2754H108.291ZM24.4581 79.7425L15.4581 89.1758L21.5039 95.5127L30.5039 86.0793L24.4581 79.7425ZM97.5426 79.7425L91.4969 86.0793L100.497 95.5127L106.543 89.1758L97.5426 79.7425ZM52.402 97.3487H69.5987V106.361H52.402V97.3487Z" fill="url(#paint0_linear)"/>
    <defs>
        <linearGradient id="paint0_linear" x1="61.0004" y1="0.0446777" x2="61.0004" y2="119.875" gradientUnits="userSpaceOnUse">
            <stop stop-color="white"/>
            <stop offset="1" stop-color="white"/>
        </linearGradient>
    </defs>
</svg>
