<svg width="147" height="144" viewBox="0 0 147 144" fill="none" xmlns="http://www.w3.org/2000/svg">
    <path d="M34.8094 0.421509C33.9718 0.51116 33.202 0.944064 32.6675 1.62593C32.1331 2.3078 31.8773 3.18339 31.956 4.062C32.0346 4.94061 32.4413 5.75106 33.0874 6.31683C33.7336 6.8826 34.5668 7.15786 35.4057 7.08265H56.2598L1.34517 64.6415C0.74956 65.2786 0.417863 66.1362 0.42216 67.0282C0.426458 67.9201 0.766405 68.7742 1.36813 69.4049C1.96985 70.0356 2.78473 70.3919 3.63568 70.3964C4.48663 70.4009 5.3049 70.0533 5.91267 69.429L60.8273 11.8713V33.7284C60.8193 34.171 60.8956 34.6109 61.0518 35.0223C61.2079 35.4337 61.4407 35.8083 61.7365 36.1243C62.0324 36.4403 62.3853 36.6913 62.7748 36.8626C63.1643 37.034 63.5824 37.1222 64.0048 37.1222C64.4272 37.1222 64.8454 37.034 65.2348 36.8626C65.6243 36.6913 65.9773 36.4403 66.2731 36.1243C66.569 35.8083 66.8018 35.4337 66.9579 35.0223C67.114 34.6109 67.1903 34.171 67.1824 33.7284V0.421509H34.8094ZM102.137 13.7461V143.644H146.625V13.7461H102.137ZM108.492 20.4073H140.269V136.981H108.492V20.4073ZM51.294 57.0441V143.642H95.7821V57.0441H51.294ZM57.6491 63.7053H89.427V136.981H57.6491V63.7053ZM0.4508 93.6822V143.642H44.9389V93.6822H0.4508ZM6.80592 100.343H38.5838V136.981H6.80592V100.343Z" fill="#F5F5F5"/>
</svg>
